<?xml version="1.0" encoding="UTF-8"?><!DOCTYPE svg PUBLIC "-//W3C//DTD SVG 1.1//EN" "http://www.w3.org/Graphics/SVG/1.1/DTD/svg11.dtd"><svg xmlns="http://www.w3.org/2000/svg" xmlns:xlink="http://www.w3.org/1999/xlink"><symbol id="sp-arrow-down" viewBox="0 0 14 8">
<path d="M1.4175 0L0 1.34583L7 8L14 1.34583L12.5825 0L7 5.30417L1.4175 0Z" fill="white"/>
</symbol><symbol id="sp-basket" viewBox="0 0 19 23">
<g id="basket">
<path id="Rectangle-10" fill-rule="evenodd" clip-rule="evenodd" d="M18.9474 6.85876H0V18.6482C0 20.8574 1.79086 22.6482 4 22.6482H14.9474C17.1565 22.6482 18.9474 20.8574 18.9474 18.6482V6.85876ZM4 21.1482C2.61929 21.1482 1.5 20.029 1.5 18.6482V8.35876H17.4474V18.6482C17.4474 20.029 16.3281 21.1482 14.9474 21.1482H4Z" fill="#262626"/>
<path id="Rectangle-3" d="M6.01315 12.06V5.86806C6.01315 3.95686 7.56248 2.40753 9.47368 2.40753C11.3849 2.40753 12.9342 3.95686 12.9342 5.86806V12.06C12.9342 12.4742 13.27 12.81 13.6842 12.81C14.0984 12.81 14.4342 12.4742 14.4342 12.06V5.86806C14.4342 3.12844 12.2133 0.907532 9.47368 0.907532C6.73406 0.907532 4.51315 3.12844 4.51315 5.86806V12.06C4.51315 12.4742 4.84894 12.81 5.26315 12.81C5.67737 12.81 6.01315 12.4742 6.01315 12.06Z" fill="#262626"/>
</g>
</symbol><symbol id="sp-facebook" viewBox="0 0 24 24">
<g id="ic/24/social/facebook">
<path id="Shape" fill-rule="evenodd" clip-rule="evenodd" d="M19.5 3H4.5C3.66003 3 3 3.66003 3 4.5V19.5C3 20.34 3.66003 21 4.5 21H11.4H15H19.5C20.34 21 21 20.34 21 19.5V4.5C21 3.66003 20.34 3 19.5 3ZM12.0519 14.2609H9.80005V11.9652H12.0519V9.95654C12.0519 8.32092 13.2904 6.94348 14.8667 6.80005H17.4V9.0957H15.1482C14.6697 9.0957 14.3037 9.46875 14.3037 9.95654V11.9652H17.1185V14.2609H14.3038V20.2001H12.0519V14.2609ZM14.9286 20.2001H19.3215C19.8193 20.2001 20.2001 19.8193 20.2001 19.3215V4.67859C20.2001 4.18079 19.8193 3.80005 19.3215 3.80005H4.67859C4.18079 3.80005 3.80005 4.18079 3.80005 4.67859V19.3215C3.80005 19.8193 4.18079 20.2001 4.67859 20.2001H11.4143V14.9286H9.07141V11.4143H11.4143V9.95007C11.4143 7.98792 12.9373 6.3186 14.8993 6.14294H18.15V9.65723H15.2214C15.0458 9.65723 14.9286 9.77429 14.9286 9.95007V11.4143H17.8572V14.9286H14.9286V20.2001Z" fill="white"/>
<mask id="mask0" mask-type="alpha" maskUnits="userSpaceOnUse" x="3" y="3" width="18" height="18">
<path id="Shape_2" fill-rule="evenodd" clip-rule="evenodd" d="M19.5 3H4.5C3.66003 3 3 3.66003 3 4.5V19.5C3 20.34 3.66003 21 4.5 21H11.4H15H19.5C20.34 21 21 20.34 21 19.5V4.5C21 3.66003 20.34 3 19.5 3ZM12.0519 14.2609H9.80005V11.9652H12.0519V9.95654C12.0519 8.32092 13.2904 6.94348 14.8667 6.80005H17.4V9.0957H15.1482C14.6697 9.0957 14.3037 9.46875 14.3037 9.95654V11.9652H17.1185V14.2609H14.3038V20.2001H12.0519V14.2609ZM14.9286 20.2001H19.3215C19.8193 20.2001 20.2001 19.8193 20.2001 19.3215V4.67859C20.2001 4.18079 19.8193 3.80005 19.3215 3.80005H4.67859C4.18079 3.80005 3.80005 4.18079 3.80005 4.67859V19.3215C3.80005 19.8193 4.18079 20.2001 4.67859 20.2001H11.4143V14.9286H9.07141V11.4143H11.4143V9.95007C11.4143 7.98792 12.9373 6.3186 14.8993 6.14294H18.15V9.65723H15.2214C15.0458 9.65723 14.9286 9.77429 14.9286 9.95007V11.4143H17.8572V14.9286H14.9286V20.2001Z" fill="white"/>
</mask>
<g mask="url(#mask0)">
</g>
</g>
</symbol><symbol id="sp-instagram" viewBox="0 0 24 24">
<g id="ic/24/social/instagram">
<path id="Combined Shape" fill-rule="evenodd" clip-rule="evenodd" d="M16.0326 3H7.96729C5.22827 3 3 5.22839 3 7.96741V16.0326C3 18.7717 5.22827 21 7.96729 21H16.0326C18.7717 21 21 18.7716 21 16.0326V7.96741C21.0001 5.22839 18.7717 3 16.0326 3ZM20.0001 16.3579C20.0001 18.3662 18.3662 20 16.3579 20H7.64197C5.63379 20.0001 4 18.3662 4 16.3579V7.64209C4 5.63391 5.63379 4 7.64197 4H16.3578C18.3661 4 20 5.63391 20 7.64209L20.0001 16.3579ZM7.36182 12.0002C7.36182 9.44275 9.4425 7.36206 12 7.36206C14.5575 7.36206 16.6381 9.44275 16.6381 12.0002C16.6381 14.5576 14.5575 16.6382 12 16.6382C9.4425 16.6382 7.36182 14.5576 7.36182 12.0002ZM16.4348 5.83411C16.5833 5.68506 16.7898 5.59998 17 5.59998C17.2108 5.59998 17.4174 5.68506 17.5658 5.83411C17.7148 5.98254 17.7999 6.18909 17.7999 6.40002C17.7999 6.61011 17.7148 6.81665 17.5658 6.96582C17.4166 7.11414 17.2108 7.19995 17 7.19995C16.7898 7.19995 16.5833 7.11414 16.4348 6.96582C16.2858 6.81665 16.2 6.61023 16.2 6.40002C16.2 6.26428 16.2355 6.13049 16.3004 6.0127C16.3364 5.94739 16.3816 5.88708 16.4348 5.83411Z" fill="white"/>
<mask id="mask0" mask-type="alpha" maskUnits="userSpaceOnUse" x="7" y="5" width="11" height="12">
<path id="Combined Shape_2" fill-rule="evenodd" clip-rule="evenodd" d="M16.4348 5.83411C16.5833 5.68506 16.7898 5.59998 17 5.59998C17.2108 5.59998 17.4174 5.68506 17.5658 5.83411C17.7148 5.98254 17.7999 6.18909 17.7999 6.40002C17.7999 6.61011 17.7148 6.81665 17.5658 6.96582C17.4166 7.11414 17.2108 7.19995 17 7.19995C16.7898 7.19995 16.5833 7.11414 16.4348 6.96582C16.2858 6.81665 16.2 6.61023 16.2 6.40002C16.2 6.26428 16.2355 6.13049 16.3004 6.0127C16.3364 5.94739 16.3816 5.88708 16.4348 5.83411ZM12 7.36206C9.4425 7.36206 7.36182 9.44275 7.36182 12.0002C7.36182 14.5576 9.4425 16.6382 12 16.6382C14.5575 16.6382 16.6381 14.5576 16.6381 12.0002C16.6381 9.44275 14.5575 7.36206 12 7.36206ZM12 15.8397C9.88269 15.8397 8.16003 14.1173 8.16003 12C8.16003 9.88257 9.88257 8.16003 12 8.16003C14.1174 8.16003 15.8401 9.88257 15.8401 12C15.8401 14.1173 14.1173 15.8397 12 15.8397Z" fill="white"/>
</mask>
<g mask="url(#mask0)">
</g>
</g>
</symbol><symbol id="sp-logo" viewBox="0 0 107 13">
<g id="logo">
<g id="XMLID_234_">
<path id="XMLID_243_" d="M8.33278 1.46767V7.33465C8.33278 9.2903 7.48249 10.0981 5.4418 10.0981C3.40112 10.0981 2.55083 9.2903 2.55083 7.33465V1.21259H0.595174C0.467631 1.21259 0.340088 1.34013 0.340088 1.46767V7.41967C0.340088 10.6933 2.42329 11.8412 5.4418 11.8412C8.46032 11.8412 10.5435 10.6933 10.5435 7.41967V1.21259H8.58786C8.46032 1.21259 8.33278 1.29761 8.33278 1.46767Z" fill="black"/>
<path id="XMLID_242_" d="M36.7749 2.91316C36.945 2.91316 37.03 2.87064 37.0725 2.7431L37.6252 1.34013C37.6677 1.2551 37.6252 1.21259 37.5402 1.21259H29.6325C28.9098 1.21259 28.6122 1.42516 28.6122 1.93533V11.0334C28.6122 11.4585 28.8248 11.6711 29.3774 11.6711H36.7324C36.9025 11.6711 36.9875 11.6286 37.03 11.501L37.5827 10.0981C37.6252 10.013 37.5827 9.97053 37.4977 9.97053H30.7804V8.0999C30.7804 7.46219 31.1205 7.16459 32.0984 7.16459H35.0318C35.2019 7.16459 35.2869 7.12207 35.3294 6.99453L35.8821 5.63407C35.9246 5.54904 35.8821 5.50653 35.7971 5.50653H30.8229V2.87064H36.7749V2.91316Z" fill="black"/>
<path id="XMLID_238_" fill-rule="evenodd" clip-rule="evenodd" d="M22.8727 6.14426C23.7229 5.67657 24.0631 4.8688 24.0631 3.84848C24.0631 1.5527 22.1925 1.21259 20.2368 1.21259H15.7728C15.05 1.21259 14.7524 1.42517 14.7524 1.93533V11.0334C14.7524 11.4585 14.965 11.6711 15.5177 11.6711H21.0021C23.0852 11.6711 24.5308 10.8633 24.5308 8.78012C24.5732 7.5047 24.0631 6.44183 22.8727 6.14426ZM16.9631 2.87064H20.4067C21.5547 2.87064 21.8948 3.29578 21.8948 4.18857C21.8948 5.08139 21.5547 5.50653 20.4067 5.50653H16.9631V2.87064ZM16.9631 9.97052H20.8319C22.0648 9.97052 22.4049 9.54538 22.4049 8.56757C22.4049 7.58972 22.0648 7.12207 20.8319 7.12207H18.2811C17.3032 7.12207 16.9631 7.41968 16.9631 8.05737V9.97052Z" fill="black"/>
<path id="XMLID_235_" fill-rule="evenodd" clip-rule="evenodd" d="M48.9764 7.46219L51.3147 11.501C51.3573 11.5435 51.3573 11.6711 51.2722 11.6711H49.274C49.104 11.6711 49.0615 11.6286 48.9764 11.501L46.8507 7.67477H44.9376C43.9597 7.67477 43.6196 7.97235 43.6196 8.61008V11.6711H41.7065C41.579 11.6711 41.4514 11.5435 41.4514 11.416V1.93533C41.4514 1.42517 41.749 1.21259 42.4718 1.21259H46.9358C49.5292 1.21259 51.1022 1.89282 51.1022 4.44366C51.1022 6.39932 50.1244 7.16458 48.9764 7.46219ZM43.5771 6.0592H47.2334C48.5939 6.0592 48.8915 5.54904 48.8915 4.44366C48.8915 3.3808 48.5939 2.87064 47.2334 2.87064H43.5771V6.0592Z" fill="black"/>
</g>
<g id="XMLID_224_">
<path id="XMLID_232_" d="M67.5977 10.7358L67.5552 11.6711H59.8176V1.21259H67.2576L67.3001 2.19041H60.8805V5.80413H66.4073V6.65442H60.8805V10.7358H67.5977Z" fill="#57AD56" stroke="#57AD56" stroke-width="0.25"/>
<g id="XMLID_229_">
<path fill-rule="evenodd" clip-rule="evenodd" d="M74.0173 8.9502H80.1819L81.3723 11.6711H82.5627L77.7587 1.21259H76.5258L71.6791 11.6711H72.8269L74.0173 8.9502ZM74.4 8.0574L76.6533 2.9982L77.0784 1.93533H77.121L77.5461 2.9982L79.7568 8.0574H74.4Z" fill="#57AD56"/>
<path d="M80.1819 8.9502L80.2964 8.90009L80.2636 8.8252H80.1819V8.9502ZM74.0173 8.9502V8.8252H73.9356L73.9028 8.90009L74.0173 8.9502ZM81.3723 11.6711L81.2578 11.7212L81.2906 11.7961H81.3723V11.6711ZM82.5627 11.6711V11.7961H82.7577L82.6763 11.6189L82.5627 11.6711ZM77.7587 1.21259L77.8723 1.16041L77.8388 1.08759H77.7587V1.21259ZM76.5258 1.21259V1.08759H76.4459L76.4123 1.16003L76.5258 1.21259ZM71.6791 11.6711L71.5657 11.6186L71.4834 11.7961H71.6791V11.6711ZM72.8269 11.6711V11.7961H72.9087L72.9414 11.7212L72.8269 11.6711ZM76.6533 2.9982L76.7676 3.04909L76.7694 3.04461L76.6533 2.9982ZM74.4 8.0574L74.2858 8.00655L74.2075 8.1824H74.4V8.0574ZM77.0784 1.93533V1.81033H76.9937L76.9623 1.88892L77.0784 1.93533ZM77.121 1.93533L77.237 1.88891L77.2056 1.81033H77.121V1.93533ZM77.5461 2.9982L77.43 3.04465L77.4316 3.04825L77.5461 2.9982ZM79.7568 8.0574V8.1824H79.9479L79.8714 8.00735L79.7568 8.0574ZM80.1819 8.8252H74.0173V9.0752H80.1819V8.8252ZM81.4868 11.621L80.2964 8.90009L80.0674 9.0003L81.2578 11.7212L81.4868 11.621ZM82.5627 11.5461H81.3723V11.7961H82.5627V11.5461ZM77.6451 1.26476L82.4492 11.7233L82.6763 11.6189L77.8723 1.16041L77.6451 1.26476ZM76.5258 1.33759H77.7587V1.08759H76.5258V1.33759ZM71.7925 11.7237L76.6392 1.26514L76.4123 1.16003L71.5657 11.6186L71.7925 11.7237ZM72.8269 11.5461H71.6791V11.7961H72.8269V11.5461ZM73.9028 8.90009L72.7124 11.621L72.9414 11.7212L74.1319 9.0003L73.9028 8.90009ZM76.5391 2.94734L74.2858 8.00655L74.5142 8.10826L76.7675 3.04906L76.5391 2.94734ZM76.9623 1.88892L76.5373 2.95178L76.7694 3.04461L77.1944 1.98175L76.9623 1.88892ZM77.121 1.81033H77.0784V2.06033H77.121V1.81033ZM77.6622 2.95177L77.237 1.88891L77.0049 1.98176L77.4301 3.04463L77.6622 2.95177ZM79.8714 8.00735L77.6607 2.94815L77.4316 3.04825L79.6423 8.10745L79.8714 8.00735ZM74.4 8.1824H79.7568V7.9324H74.4V8.1824Z" fill="#57AD56"/>
</g>
<path id="XMLID_227_" d="M90.2154 2.19041V11.6711H89.1525V2.19041H85.2412L85.2837 1.21259H94.1692V2.19041H90.2154Z" fill="#57AD56" stroke="#57AD56" stroke-width="0.25"/>
<path id="XMLID_225_" d="M101.737 11.8837C100.291 11.8837 99.1433 11.5435 98.208 10.9909L98.3781 10.0555C99.3559 10.6082 100.461 10.9483 101.779 10.9483C103.735 10.9483 104.755 10.0555 104.755 8.78012C104.755 6.01669 98.3781 7.46217 98.3781 3.89097C98.3781 2.36046 99.526 1 102.204 1C103.437 1 104.543 1.21257 105.435 1.63771L105.265 2.53051C104.288 2.14789 103.352 1.93531 102.247 1.93531C100.164 1.93531 99.3984 2.87063 99.3984 3.80594C99.3984 6.44183 105.776 4.95383 105.776 8.69509C105.733 10.5657 104.373 11.8837 101.737 11.8837Z" fill="#57AD56" stroke="#57AD56" stroke-width="0.25"/>
</g>
</g>
</symbol><symbol id="sp-twitter" viewBox="0 0 24 24">
<g id="ic/24/social/twitter">
<path id="Shape" fill-rule="evenodd" clip-rule="evenodd" d="M20.5303 6.09489C20.6525 6.06364 20.8053 6.09489 20.8969 6.18864C20.9885 6.28239 21.0191 6.43864 20.9885 6.56364C20.7136 7.46977 20.1637 8.12602 19.4915 8.46977V8.5634C19.4915 14.5942 15.0921 19.5 9.71486 19.5C6.6902 19.5 4.24611 18.9688 3.14625 18.0627C3.02394 17.9377 2.9629 17.7814 3.02394 17.5939C3.0851 17.4377 3.23781 17.3127 3.42116 17.3127C5.22377 17.2814 6.38466 16.844 7.27064 16.3128C5.55983 16.094 4.49049 15.2504 3.94057 13.6568C3.87941 13.5005 3.94057 13.3443 4.06276 13.2505C4.18495 13.1568 4.3683 13.1568 4.49049 13.2193C4.94874 13.5318 5.407 13.5943 5.95692 13.5943C4.79591 12.8757 3.7267 11.6882 3.29896 10.2195C3.26832 10.0633 3.32948 9.8759 3.45167 9.8134C3.60438 9.71965 3.75722 9.7509 3.87941 9.84465C4.21547 10.1258 4.58217 10.3133 5.13209 10.407C3.94057 9.15715 3.20729 7.31352 4.24599 5.28252L4.42934 4.90752L4.73476 5.22002C6.62904 7.25102 8.3705 8.18852 11.548 8.8134V8.6884C11.548 6.40739 13.2894 4.53252 15.4586 4.50127C16.314 4.50127 17.5055 5.12627 17.9944 5.40752C18.006 5.40752 18.0177 5.41203 18.0277 5.41594C18.0438 5.42229 18.0556 5.4268 18.0556 5.40752C18.6665 5.22002 19.3998 4.90752 20.2553 4.53252C20.3775 4.47002 20.5303 4.50127 20.6218 4.59502C20.7136 4.68877 20.7442 4.81377 20.683 4.97002C20.5303 5.40752 20.2859 5.87627 19.9192 6.31364L20.5303 6.09489ZM18.7355 8.23784L18.9133 8.17741C19.4765 7.96623 19.8025 7.51347 20.01 7.12126L18.854 7.5136C18.7058 7.5739 18.528 7.5136 18.4688 7.36272C18.4094 7.21172 18.4391 7.03069 18.5576 6.94011C19.0319 6.54778 19.3876 6.12529 19.6543 5.67265C19.0615 5.91399 18.528 6.12529 18.0834 6.27617C17.9055 6.33647 17.7277 6.30632 17.5498 6.21587L17.532 6.20598C17.1845 6.01274 16.0856 5.40141 15.4158 5.4312C13.6373 5.46135 12.2146 7.00053 12.2146 8.87163V9.7166L11.859 9.6563C8.59852 9.05266 6.79054 8.17741 4.89357 6.27617C4.00429 8.56975 5.84205 10.1694 6.46449 10.622L7.20546 11.1652H6.28663C5.69374 11.1652 5.04176 11.1049 4.44887 10.8333C5.10097 12.2215 6.43483 13.2476 7.56117 13.5796L7.47218 14.1832C7.23512 14.1832 6.99794 14.1832 6.76088 14.2133C6.13844 14.2436 5.57521 14.2436 5.04176 14.0624C5.63454 15.2093 6.67201 15.6922 8.36146 15.6922H9.25062L8.50966 16.2354C7.59083 16.9596 6.40517 17.6236 4.36 17.7746C5.33815 18.2574 7.14613 18.7101 9.8434 18.7101C14.4647 18.7101 18.7355 13.9991 18.7355 8.7509V8.23784Z" fill="white"/>
<mask id="mask0" mask-type="alpha" maskUnits="userSpaceOnUse" x="3" y="4" width="18" height="16">
<path id="Shape_2" fill-rule="evenodd" clip-rule="evenodd" d="M20.5303 6.09489C20.6525 6.06364 20.8053 6.09489 20.8969 6.18864C20.9885 6.28239 21.0191 6.43864 20.9885 6.56364C20.7136 7.46977 20.1637 8.12602 19.4915 8.46977V8.5634C19.4915 14.5942 15.0921 19.5 9.71486 19.5C6.6902 19.5 4.24611 18.9688 3.14625 18.0627C3.02394 17.9377 2.9629 17.7814 3.02394 17.5939C3.0851 17.4377 3.23781 17.3127 3.42116 17.3127C5.22377 17.2814 6.38466 16.844 7.27064 16.3128C5.55983 16.094 4.49049 15.2504 3.94057 13.6568C3.87941 13.5005 3.94057 13.3443 4.06276 13.2505C4.18495 13.1568 4.3683 13.1568 4.49049 13.2193C4.94874 13.5318 5.407 13.5943 5.95692 13.5943C4.79591 12.8757 3.7267 11.6882 3.29896 10.2195C3.26832 10.0633 3.32948 9.8759 3.45167 9.8134C3.60438 9.71965 3.75722 9.7509 3.87941 9.84465C4.21547 10.1258 4.58217 10.3133 5.13209 10.407C3.94057 9.15715 3.20729 7.31352 4.24599 5.28252L4.42934 4.90752L4.73476 5.22002C6.62904 7.25102 8.3705 8.18852 11.548 8.8134V8.6884C11.548 6.40739 13.2894 4.53252 15.4586 4.50127C16.314 4.50127 17.5055 5.12627 17.9944 5.40752C18.006 5.40752 18.0177 5.41203 18.0277 5.41594C18.0438 5.42229 18.0556 5.4268 18.0556 5.40752C18.6665 5.22002 19.3998 4.90752 20.2553 4.53252C20.3775 4.47002 20.5303 4.50127 20.6218 4.59502C20.7136 4.68877 20.7442 4.81377 20.683 4.97002C20.5303 5.40752 20.2859 5.87627 19.9192 6.31364L20.5303 6.09489ZM18.7355 8.23784L18.9133 8.17741C19.4765 7.96623 19.8025 7.51347 20.01 7.12126L18.854 7.5136C18.7058 7.5739 18.528 7.5136 18.4688 7.36272C18.4094 7.21172 18.4391 7.03069 18.5576 6.94011C19.0319 6.54778 19.3876 6.12529 19.6543 5.67265C19.0615 5.91399 18.528 6.12529 18.0834 6.27617C17.9055 6.33647 17.7277 6.30632 17.5498 6.21587L17.532 6.20598C17.1845 6.01274 16.0856 5.40141 15.4158 5.4312C13.6373 5.46135 12.2146 7.00053 12.2146 8.87163V9.7166L11.859 9.6563C8.59852 9.05266 6.79054 8.17741 4.89357 6.27617C4.00429 8.56975 5.84205 10.1694 6.46449 10.622L7.20546 11.1652H6.28663C5.69374 11.1652 5.04176 11.1049 4.44887 10.8333C5.10097 12.2215 6.43483 13.2476 7.56117 13.5796L7.47218 14.1832C7.23512 14.1832 6.99794 14.1832 6.76088 14.2133C6.13844 14.2436 5.57521 14.2436 5.04176 14.0624C5.63454 15.2093 6.67201 15.6922 8.36146 15.6922H9.25062L8.50966 16.2354C7.59083 16.9596 6.40517 17.6236 4.36 17.7746C5.33815 18.2574 7.14613 18.7101 9.8434 18.7101C14.4647 18.7101 18.7355 13.9991 18.7355 8.7509V8.23784Z" fill="white"/>
</mask>
<g mask="url(#mask0)">
</g>
</g>
</symbol><symbol id="sp-white-logo" viewBox="0 0 192 21">
<g id="white-logo">
<g id="XMLID_234_">
<path id="XMLID_243_" d="M15.0769 1.84618V12.4616C15.0769 16 13.5384 17.4616 9.84613 17.4616C6.15382 17.4616 4.61536 16 4.61536 12.4616V1.38464H1.07689C0.846126 1.38464 0.615356 1.61541 0.615356 1.84618V12.6154C0.615356 18.5385 4.38459 20.6154 9.84613 20.6154C15.3077 20.6154 19.0769 18.5385 19.0769 12.6154V1.38464H15.5384C15.3077 1.38464 15.0769 1.53849 15.0769 1.84618Z" fill="white"/>
<path id="XMLID_242_" d="M66.5385 4.46157C66.8462 4.46157 67.0001 4.38464 67.077 4.15387L68.077 1.61541C68.1539 1.46157 68.077 1.38464 67.9231 1.38464H53.6154C52.3077 1.38464 51.7693 1.76926 51.7693 2.69234V19.1539C51.7693 19.9231 52.1539 20.3077 53.1539 20.3077H66.4616C66.7693 20.3077 66.9231 20.2308 67.0001 20L68.0001 17.4616C68.077 17.3077 68.0001 17.2308 67.8462 17.2308H55.6924V13.8462C55.6924 12.6923 56.3077 12.1539 58.077 12.1539H63.3847C63.6924 12.1539 63.8462 12.077 63.9231 11.8462L64.9231 9.38464C65.0001 9.2308 64.9231 9.15387 64.7693 9.15387H55.7693V4.38464H66.5385V4.46157Z" fill="white"/>
<path id="XMLID_238_" fill-rule="evenodd" clip-rule="evenodd" d="M41.3845 10.3077C42.923 9.46155 43.5385 8 43.5385 6.15393C43.5385 2 40.1538 1.38464 36.6154 1.38464H28.5385C27.2307 1.38464 26.6923 1.76929 26.6923 2.69238V19.1539C26.6923 19.9231 27.0769 20.3077 28.0769 20.3077H38C41.7692 20.3077 44.3845 18.8462 44.3845 15.0769C44.4615 12.7693 43.5385 10.8462 41.3845 10.3077ZM30.6923 4.38464H36.923C39 4.38464 39.6154 5.15393 39.6154 6.76929C39.6154 8.38464 39 9.15393 36.923 9.15393H30.6923V4.38464ZM30.6923 17.2307H37.6923C39.923 17.2307 40.5385 16.4615 40.5385 14.6923C40.5385 12.9231 39.923 12.0769 37.6923 12.0769H33.0769C31.3076 12.0769 30.6923 12.6154 30.6923 13.7692V17.2307Z" fill="white"/>
<path id="XMLID_235_" fill-rule="evenodd" clip-rule="evenodd" d="M88.6154 12.6924L92.8462 20C92.9231 20.0769 92.9231 20.3077 92.7693 20.3077H89.1538C88.8462 20.3077 88.7693 20.2308 88.6154 20L84.7693 13.0769H81.3077C79.5385 13.0769 78.9231 13.6154 78.9231 14.7693V20.3077H75.4615C75.2307 20.3077 75 20.0769 75 19.8462V2.69238C75 1.76929 75.5385 1.38464 76.8462 1.38464H84.9231C89.6154 1.38464 92.4615 2.61536 92.4615 7.23083C92.4615 10.7693 90.6923 12.1539 88.6154 12.6924ZM78.8462 10.1539H85.4615C87.9231 10.1539 88.4615 9.23083 88.4615 7.23083C88.4615 5.30774 87.9231 4.38464 85.4615 4.38464H78.8462V10.1539Z" fill="white"/>
</g>
<g id="XMLID_224_">
<path id="XMLID_232_" d="M122.308 18.6154L122.231 20.3077H108.231V1.38464H121.692L121.769 3.15387H110.154V9.69234H120.154V11.2308H110.154V18.6154H122.308Z" fill="#57AD56" stroke="#57AD56" stroke-width="0.25"/>
<g id="XMLID_229_">
<path fill-rule="evenodd" clip-rule="evenodd" d="M133.923 15.3846H145.077L147.231 20.3077H149.385L140.692 1.38464H138.462L129.692 20.3077H131.769L133.923 15.3846ZM134.615 13.7693L138.692 4.61548L139.462 2.69238H139.538L140.308 4.61548L144.308 13.7693H134.615Z" fill="#57AD56"/>
<path d="M145.077 15.3846L145.191 15.3345L145.159 15.2596H145.077V15.3846ZM133.923 15.3846V15.2596H133.841L133.808 15.3345L133.923 15.3846ZM147.231 20.3077L147.116 20.3578L147.149 20.4327H147.231V20.3077ZM149.385 20.3077V20.4327H149.579L149.498 20.2556L149.385 20.3077ZM140.692 1.38464L140.806 1.33247L140.772 1.25964H140.692V1.38464ZM138.462 1.38464V1.25964H138.382L138.348 1.33209L138.462 1.38464ZM129.692 20.3077L129.579 20.2552L129.497 20.4327H129.692V20.3077ZM131.769 20.3077V20.4327H131.851L131.884 20.3578L131.769 20.3077ZM138.692 4.61548L138.807 4.66637L138.808 4.6619L138.692 4.61548ZM134.615 13.7693L134.501 13.7184L134.423 13.8943H134.615V13.7693ZM139.462 2.69238V2.56738H139.377L139.345 2.64596L139.462 2.69238ZM139.538 2.69238L139.655 2.64596L139.623 2.56738H139.538V2.69238ZM140.308 4.61548L140.191 4.66192L140.193 4.66553L140.308 4.61548ZM144.308 13.7693V13.8943H144.499L144.422 13.7192L144.308 13.7693ZM145.077 15.2596H133.923V15.5096H145.077V15.2596ZM147.345 20.2576L145.191 15.3345L144.962 15.4347L147.116 20.3578L147.345 20.2576ZM149.385 20.1827H147.231V20.4327H149.385V20.1827ZM140.579 1.43682L149.271 20.3599L149.498 20.2556L140.806 1.33247L140.579 1.43682ZM138.462 1.50964H140.692V1.25964H138.462V1.50964ZM129.806 20.3603L138.575 1.4372L138.348 1.33209L129.579 20.2552L129.806 20.3603ZM131.769 20.1827H129.692V20.4327H131.769V20.1827ZM133.808 15.3345L131.655 20.2576L131.884 20.3578L134.037 15.4347L133.808 15.3345ZM138.578 4.56462L134.501 13.7184L134.73 13.8201L138.806 4.66633L138.578 4.56462ZM139.345 2.64596L138.576 4.56905L138.808 4.6619L139.578 2.73881L139.345 2.64596ZM139.538 2.56738H139.462V2.81738H139.538V2.56738ZM140.424 4.56906L139.655 2.64596L139.422 2.7388L140.192 4.6619L140.424 4.56906ZM144.422 13.7192L140.422 4.56543L140.193 4.66553L144.193 13.8193L144.422 13.7192ZM134.615 13.8943H144.308V13.6443H134.615V13.8943Z" fill="#57AD56"/>
</g>
<path id="XMLID_227_" d="M163.231 3.15387V20.3077H161.308V3.15387H154.231L154.308 1.38464H170.385V3.15387H163.231Z" fill="#57AD56" stroke="#57AD56" stroke-width="0.25"/>
<path id="XMLID_225_" d="M184.077 20.6923C181.461 20.6923 179.385 20.0769 177.692 19.0769L178 17.3846C179.769 18.3846 181.769 19 184.154 19C187.692 19 189.538 17.3846 189.538 15.0769C189.538 10.0769 178 12.6923 178 6.23077C178 3.46154 180.077 1 184.923 1C187.154 1 189.154 1.38462 190.769 2.15385L190.461 3.76923C188.692 3.07692 187 2.69231 185 2.69231C181.231 2.69231 179.846 4.38462 179.846 6.07692C179.846 10.8462 191.385 8.15385 191.385 14.9231C191.308 18.3077 188.846 20.6923 184.077 20.6923Z" fill="#57AD56" stroke="#57AD56" stroke-width="0.25"/>
</g>
</g>
</symbol><symbol id="sp-world" viewBox="0 0 16 16">
<g id="world">
<path id="Shape" fill-rule="evenodd" clip-rule="evenodd" d="M11.1121 5.42651C10.6509 3.21118 9.26318 1.54529 8.42102 1.1958V5.53882C9.26318 5.52844 10.3713 5.48547 11.1121 5.42651ZM14.0255 4.96301C13.8721 5.01013 13.25 5.18372 12.0197 5.32935C11.7421 3.85291 11.241 2.59473 10.5875 1.6864C12.0856 2.33569 13.3038 3.50452 14.0255 4.96301ZM8.42102 6.51733C9.26318 6.50635 10.4435 6.45996 11.2272 6.3949C11.2917 6.91309 11.308 7.44946 11.308 8.0011C11.308 8.70959 11.2827 9.39673 11.1783 10.046C10.4067 9.98364 9.26318 9.93872 8.42102 9.92871V6.51733ZM8.42102 10.9072V14.8068C9.26318 14.4808 10.51 13.0077 11.0096 11.0125C10.2882 10.9569 9.26318 10.9174 8.42102 10.9072ZM10.5875 14.3163C11.1764 13.4978 11.6455 12.3992 11.9349 11.1088C12.9027 11.2202 13.5125 11.3499 13.8198 11.4274C13.0797 12.7118 11.9467 13.7245 10.5875 14.3163ZM12.1678 6.29675C12.3156 7.57568 12.2957 8.86853 12.1089 10.1423C13.3038 10.2823 13.9834 10.4514 14.2538 10.5303C14.5653 9.74658 14.7422 8.89465 14.7422 8.0011C14.7417 7.11792 14.5702 6.24329 14.2369 5.42542L14.3949 5.8717C14.3506 5.88745 13.6808 6.11511 12.1678 6.29675Z" fill="white"/>
</g>
</symbol><symbol id="sp-arrow-up" viewBox="0 0 16 25"><path d="M8.01841 0.0428432L8.05278 0.0102539L15.6742 7.25758L14.0756 8.70713L8.92868 3.88391V25H7.14296V3.85222L1.96216 8.70713L0.399658 7.25758L8.00323 0.0102539L8.01885 0.0428432H8.01841Z" fill="white"/></symbol></svg>